<svg xmlns="http://www.w3.org/2000/svg" xmlns:xlink="http://www.w3.org/1999/xlink" width="50" zoomAndPan="magnify" viewBox="0 0 75 74.999997" height="50" preserveAspectRatio="xMidYMid meet" version="1.0"><defs><clipPath id="6dfe4cfe56"><path d="M 23.328125 60.738281 L 34.992188 60.738281 L 34.992188 72.367188 L 23.328125 72.367188 Z M 23.328125 60.738281 " clip-rule="nonzero"/></clipPath><clipPath id="2f46911e90"><path d="M 52.15625 60.738281 L 63.820312 60.738281 L 63.820312 72.367188 L 52.15625 72.367188 Z M 52.15625 60.738281 " clip-rule="nonzero"/></clipPath><clipPath id="206a07288e"><path d="M 0 2.640625 L 74.996094 2.640625 L 74.996094 56.339844 L 0 56.339844 Z M 0 2.640625 " clip-rule="nonzero"/></clipPath></defs><rect x="-7.5" width="90" fill="#ffffff" y="-7.5" height="89.999996" fill-opacity="1"/><rect x="-7.5" width="90" fill="#ffffff" y="-7.5" height="89.999996" fill-opacity="1"/><g clip-path="url(#6dfe4cfe56)"><path fill="#161616" d="M 29.242188 60.949219 C 26.09375 60.949219 23.535156 63.511719 23.535156 66.65625 C 23.535156 69.804688 26.09375 72.367188 29.242188 72.367188 C 32.390625 72.367188 34.953125 69.804688 34.953125 66.65625 C 34.953125 63.511719 32.390625 60.949219 29.242188 60.949219 " fill-opacity="1" fill-rule="nonzero"/></g><g clip-path="url(#2f46911e90)"><path fill="#161616" d="M 58.074219 60.949219 C 54.925781 60.949219 52.367188 63.511719 52.367188 66.65625 C 52.367188 69.804688 54.925781 72.367188 58.074219 72.367188 C 61.222656 72.367188 63.785156 69.804688 63.785156 66.65625 C 63.785156 63.511719 61.222656 60.949219 58.074219 60.949219 " fill-opacity="1" fill-rule="nonzero"/></g><g clip-path="url(#206a07288e)"><path fill="#161616" d="M 66.355469 41.015625 C 66.917969 40.917969 67.378906 40.519531 67.554688 39.976562 L 74.921875 17.589844 C 75.074219 17.117188 74.996094 16.605469 74.707031 16.203125 C 74.414062 15.800781 73.949219 15.566406 73.457031 15.566406 L 18.933594 15.566406 L 17.234375 7.339844 C 17.113281 6.757812 16.667969 6.296875 16.089844 6.15625 L 1.910156 2.683594 C 1.082031 2.484375 0.246094 2.988281 0.0429688 3.816406 C -0.15625 4.644531 0.347656 5.480469 1.175781 5.679688 L 14.410156 8.921875 L 16.164062 17.40625 C 16.167969 17.414062 16.167969 17.421875 16.171875 17.429688 L 22.207031 46.601562 L 18.523438 53.886719 C 18.28125 54.363281 18.304688 54.933594 18.585938 55.390625 C 18.867188 55.847656 19.363281 56.125 19.898438 56.125 L 67.039062 56.125 C 67.894531 56.125 68.582031 55.433594 68.582031 54.582031 C 68.582031 53.730469 67.894531 53.042969 67.039062 53.042969 L 22.40625 53.042969 L 24.851562 48.207031 L 66.355469 41.015625 " fill-opacity="1" fill-rule="nonzero"/></g></svg>