<svg xmlns="http://www.w3.org/2000/svg" xmlns:xlink="http://www.w3.org/1999/xlink" width="100" zoomAndPan="magnify" viewBox="0 0 75 74.999997" height="100" preserveAspectRatio="xMidYMid meet" version="1.0"><defs><clipPath id="fd2d7ef3fb"><path d="M 2.480469 4 L 72 4 L 72 50 L 2.480469 50 Z M 2.480469 4 " clip-rule="nonzero"/></clipPath></defs><g clip-path="url(#fd2d7ef3fb)"><path fill="#000000" d="M 65.28125 16.539062 L 24.285156 16.539062 C 23.996094 16.539062 23.71875 16.597656 23.453125 16.707031 C 23.1875 16.816406 22.953125 16.976562 22.75 17.179688 C 22.542969 17.382812 22.386719 17.621094 22.277344 17.886719 C 22.167969 18.152344 22.113281 18.433594 22.113281 18.722656 C 22.113281 19.011719 22.167969 19.289062 22.277344 19.554688 C 22.386719 19.824219 22.542969 20.058594 22.75 20.261719 C 22.953125 20.46875 23.1875 20.625 23.453125 20.734375 C 23.71875 20.847656 23.996094 20.902344 24.285156 20.902344 L 65.28125 20.902344 C 65.480469 20.902344 65.679688 20.925781 65.875 20.976562 C 66.070312 21.027344 66.253906 21.101562 66.429688 21.199219 C 66.605469 21.300781 66.765625 21.417969 66.910156 21.558594 C 67.058594 21.699219 67.183594 21.851562 67.289062 22.023438 C 67.394531 22.195312 67.476562 22.378906 67.535156 22.574219 C 67.59375 22.765625 67.628906 22.964844 67.636719 23.164062 C 67.648438 23.367188 67.628906 23.566406 67.589844 23.765625 C 67.546875 23.960938 67.480469 24.152344 67.390625 24.332031 C 64.90625 29.332031 61.363281 40.492188 59.59375 44.042969 C 59.394531 44.441406 59.105469 44.761719 58.722656 44.996094 C 58.34375 45.234375 57.929688 45.351562 57.484375 45.351562 L 27.300781 45.351562 C 26.820312 45.351562 26.375 45.214844 25.976562 44.941406 C 25.574219 44.667969 25.285156 44.308594 25.105469 43.855469 C 25.105469 43.832031 18.316406 13.25 18.316406 13.25 C 18.179688 12.628906 17.992188 12.023438 17.753906 11.433594 C 17.511719 10.84375 17.226562 10.277344 16.890625 9.734375 C 16.554688 9.195312 16.175781 8.6875 15.757812 8.207031 C 15.335938 7.730469 14.878906 7.292969 14.382812 6.894531 C 13.886719 6.496094 13.363281 6.140625 12.808594 5.832031 C 12.253906 5.523438 11.679688 5.261719 11.078125 5.050781 C 10.480469 4.839844 9.867188 4.679688 9.242188 4.570312 C 8.617188 4.464844 7.988281 4.410156 7.351562 4.410156 L 4.65625 4.410156 C 4.363281 4.398438 4.078125 4.445312 3.804688 4.550781 C 3.535156 4.65625 3.292969 4.8125 3.085938 5.019531 C 2.878906 5.230469 2.722656 5.46875 2.617188 5.746094 C 2.511719 6.019531 2.464844 6.304688 2.480469 6.597656 C 2.480469 6.886719 2.535156 7.164062 2.648438 7.429688 C 2.757812 7.695312 2.914062 7.933594 3.117188 8.136719 C 3.320312 8.339844 3.554688 8.5 3.820312 8.609375 C 4.085938 8.722656 4.363281 8.777344 4.652344 8.777344 L 7.351562 8.777344 C 8.136719 8.777344 8.898438 8.90625 9.636719 9.167969 C 10.375 9.429688 11.050781 9.804688 11.660156 10.296875 C 12.273438 10.785156 12.785156 11.367188 13.199219 12.035156 C 13.613281 12.699219 13.90625 13.417969 14.078125 14.183594 L 20.886719 44.898438 C 20.902344 44.964844 20.921875 45.042969 20.945312 45.109375 C 21.167969 45.78125 21.488281 46.398438 21.902344 46.96875 C 22.320312 47.539062 22.8125 48.027344 23.382812 48.441406 C 23.957031 48.855469 24.574219 49.167969 25.242188 49.386719 C 25.914062 49.601562 26.597656 49.710938 27.300781 49.710938 L 57.484375 49.710938 C 58.105469 49.710938 58.714844 49.625 59.316406 49.457031 C 59.914062 49.285156 60.476562 49.035156 61.007812 48.707031 C 61.535156 48.378906 62.011719 47.984375 62.429688 47.519531 C 62.851562 47.058594 63.199219 46.550781 63.476562 45.992188 C 65.246094 42.441406 68.78125 31.285156 71.273438 26.28125 C 71.402344 26.023438 71.511719 25.761719 71.605469 25.492188 C 71.699219 25.222656 71.777344 24.949219 71.835938 24.667969 C 71.894531 24.390625 71.9375 24.109375 71.960938 23.824219 C 71.984375 23.539062 71.988281 23.253906 71.976562 22.96875 C 71.964844 22.683594 71.933594 22.398438 71.882812 22.117188 C 71.835938 21.835938 71.769531 21.558594 71.683594 21.285156 C 71.601562 21.011719 71.5 20.746094 71.382812 20.488281 C 71.265625 20.226562 71.132812 19.976562 70.980469 19.730469 C 70.832031 19.488281 70.667969 19.257812 70.488281 19.035156 C 70.308594 18.8125 70.117188 18.601562 69.914062 18.40625 C 69.707031 18.207031 69.488281 18.023438 69.261719 17.855469 C 69.03125 17.683594 68.792969 17.53125 68.542969 17.390625 C 68.296875 17.253906 68.039062 17.128906 67.777344 17.023438 C 67.511719 16.917969 67.242188 16.828125 66.964844 16.757812 C 66.691406 16.683594 66.414062 16.632812 66.128906 16.59375 C 65.847656 16.558594 65.566406 16.539062 65.28125 16.539062 Z M 65.28125 16.539062 " fill-opacity="1" fill-rule="evenodd"/></g><path fill="#000000" d="M 29.664062 52.269531 C 29.082031 52.269531 28.503906 52.324219 27.933594 52.441406 C 27.359375 52.554688 26.804688 52.722656 26.265625 52.945312 C 25.730469 53.171875 25.21875 53.445312 24.734375 53.769531 C 24.25 54.09375 23.800781 54.464844 23.386719 54.878906 C 22.976562 55.292969 22.609375 55.742188 22.285156 56.230469 C 21.960938 56.714844 21.6875 57.230469 21.464844 57.769531 C 21.242188 58.308594 21.074219 58.867188 20.960938 59.441406 C 20.847656 60.015625 20.789062 60.59375 20.789062 61.179688 C 20.789062 61.765625 20.847656 62.34375 20.960938 62.917969 C 21.074219 63.492188 21.242188 64.046875 21.464844 64.589844 C 21.6875 65.128906 21.960938 65.644531 22.285156 66.128906 C 22.609375 66.617188 22.976562 67.066406 23.390625 67.480469 C 23.800781 67.894531 24.25 68.261719 24.734375 68.585938 C 25.21875 68.914062 25.730469 69.1875 26.269531 69.410156 C 26.808594 69.632812 27.363281 69.804688 27.933594 69.917969 C 28.503906 70.03125 29.082031 70.089844 29.664062 70.089844 C 30.246094 70.089844 30.824219 70.03125 31.394531 69.917969 C 31.96875 69.800781 32.523438 69.632812 33.0625 69.410156 C 33.597656 69.183594 34.109375 68.910156 34.59375 68.585938 C 35.078125 68.261719 35.527344 67.890625 35.9375 67.476562 C 36.351562 67.0625 36.71875 66.613281 37.042969 66.125 C 37.367188 65.640625 37.640625 65.125 37.863281 64.585938 C 38.085938 64.046875 38.253906 63.488281 38.367188 62.914062 C 38.480469 62.339844 38.539062 61.761719 38.535156 61.175781 C 38.535156 60.589844 38.480469 60.011719 38.367188 59.4375 C 38.25 58.863281 38.082031 58.308594 37.859375 57.769531 C 37.636719 57.226562 37.363281 56.714844 37.039062 56.226562 C 36.714844 55.742188 36.347656 55.292969 35.9375 54.878906 C 35.523438 54.464844 35.074219 54.097656 34.589844 53.769531 C 34.105469 53.445312 33.597656 53.171875 33.058594 52.949219 C 32.519531 52.722656 31.964844 52.554688 31.394531 52.441406 C 30.824219 52.328125 30.246094 52.269531 29.664062 52.269531 Z M 29.664062 65.726562 C 29.367188 65.726562 29.070312 65.699219 28.78125 65.640625 C 28.488281 65.582031 28.203125 65.496094 27.929688 65.378906 C 27.65625 65.265625 27.394531 65.125 27.148438 64.960938 C 26.898438 64.792969 26.671875 64.605469 26.460938 64.394531 C 26.25 64.183594 26.0625 63.953125 25.898438 63.707031 C 25.730469 63.457031 25.59375 63.195312 25.476562 62.917969 C 25.363281 62.644531 25.277344 62.359375 25.21875 62.066406 C 25.164062 61.773438 25.132812 61.476562 25.132812 61.179688 C 25.132812 60.878906 25.160156 60.585938 25.21875 60.292969 C 25.277344 60 25.363281 59.714844 25.476562 59.4375 C 25.589844 59.164062 25.730469 58.902344 25.894531 58.652344 C 26.0625 58.402344 26.25 58.175781 26.460938 57.964844 C 26.667969 57.753906 26.898438 57.5625 27.144531 57.398438 C 27.390625 57.230469 27.652344 57.089844 27.929688 56.976562 C 28.203125 56.863281 28.484375 56.777344 28.777344 56.71875 C 29.070312 56.660156 29.363281 56.628906 29.660156 56.628906 C 29.957031 56.628906 30.253906 56.660156 30.546875 56.71875 C 30.835938 56.777344 31.121094 56.863281 31.394531 56.976562 C 31.667969 57.089844 31.929688 57.230469 32.179688 57.394531 C 32.425781 57.5625 32.65625 57.75 32.863281 57.960938 C 33.074219 58.171875 33.261719 58.402344 33.429688 58.648438 C 33.59375 58.898438 33.734375 59.160156 33.847656 59.4375 C 33.960938 59.710938 34.046875 59.996094 34.105469 60.289062 C 34.164062 60.582031 34.191406 60.878906 34.191406 61.175781 C 34.191406 61.476562 34.164062 61.769531 34.105469 62.0625 C 34.046875 62.355469 33.960938 62.640625 33.847656 62.917969 C 33.734375 63.191406 33.59375 63.453125 33.429688 63.703125 C 33.265625 63.953125 33.074219 64.179688 32.867188 64.390625 C 32.65625 64.605469 32.425781 64.792969 32.179688 64.957031 C 31.933594 65.125 31.671875 65.265625 31.398438 65.378906 C 31.121094 65.492188 30.839844 65.578125 30.546875 65.636719 C 30.253906 65.695312 29.960938 65.726562 29.664062 65.726562 Z M 29.664062 65.726562 " fill-opacity="1" fill-rule="evenodd"/><path fill="#000000" d="M 54.394531 52.269531 C 53.8125 52.269531 53.234375 52.324219 52.664062 52.441406 C 52.09375 52.554688 51.539062 52.722656 51 52.945312 C 50.460938 53.171875 49.949219 53.445312 49.464844 53.769531 C 48.980469 54.09375 48.53125 54.464844 48.121094 54.878906 C 47.707031 55.292969 47.339844 55.742188 47.015625 56.230469 C 46.695312 56.714844 46.421875 57.230469 46.195312 57.769531 C 45.972656 58.308594 45.804688 58.867188 45.691406 59.441406 C 45.578125 60.015625 45.523438 60.59375 45.523438 61.179688 C 45.523438 61.765625 45.578125 62.34375 45.691406 62.917969 C 45.804688 63.492188 45.976562 64.046875 46.199219 64.589844 C 46.421875 65.128906 46.695312 65.644531 47.019531 66.128906 C 47.34375 66.617188 47.710938 67.066406 48.121094 67.480469 C 48.535156 67.894531 48.980469 68.261719 49.46875 68.585938 C 49.953125 68.914062 50.464844 69.1875 51 69.410156 C 51.539062 69.632812 52.09375 69.804688 52.667969 69.917969 C 53.238281 70.03125 53.816406 70.089844 54.398438 70.089844 C 54.980469 70.089844 55.558594 70.03125 56.128906 69.917969 C 56.699219 69.800781 57.253906 69.632812 57.792969 69.410156 C 58.332031 69.183594 58.84375 68.910156 59.328125 68.585938 C 59.8125 68.261719 60.261719 67.890625 60.671875 67.476562 C 61.085938 67.0625 61.453125 66.613281 61.777344 66.125 C 62.097656 65.640625 62.371094 65.125 62.59375 64.585938 C 62.816406 64.046875 62.984375 63.488281 63.101562 62.914062 C 63.214844 62.339844 63.269531 61.761719 63.269531 61.175781 C 63.269531 60.589844 63.210938 60.011719 63.097656 59.4375 C 62.984375 58.863281 62.816406 58.308594 62.59375 57.769531 C 62.371094 57.226562 62.097656 56.714844 61.773438 56.226562 C 61.449219 55.742188 61.082031 55.292969 60.667969 54.878906 C 60.257812 54.464844 59.808594 54.09375 59.324219 53.769531 C 58.839844 53.445312 58.328125 53.171875 57.789062 52.949219 C 57.253906 52.722656 56.699219 52.554688 56.125 52.441406 C 55.554688 52.328125 54.976562 52.269531 54.394531 52.269531 Z M 54.394531 65.726562 C 54.097656 65.726562 53.804688 65.699219 53.511719 65.640625 C 53.21875 65.582031 52.9375 65.496094 52.664062 65.378906 C 52.386719 65.265625 52.125 65.125 51.878906 64.960938 C 51.632812 64.792969 51.402344 64.605469 51.191406 64.394531 C 50.984375 64.183594 50.792969 63.953125 50.628906 63.707031 C 50.464844 63.457031 50.324219 63.195312 50.210938 62.917969 C 50.097656 62.644531 50.011719 62.359375 49.953125 62.066406 C 49.894531 61.773438 49.867188 61.476562 49.867188 61.179688 C 49.867188 60.878906 49.894531 60.585938 49.953125 60.292969 C 50.011719 60 50.097656 59.714844 50.210938 59.4375 C 50.324219 59.164062 50.464844 58.902344 50.628906 58.652344 C 50.792969 58.402344 50.980469 58.175781 51.191406 57.964844 C 51.402344 57.753906 51.628906 57.5625 51.878906 57.398438 C 52.125 57.230469 52.386719 57.089844 52.660156 56.976562 C 52.9375 56.863281 53.21875 56.777344 53.511719 56.71875 C 53.800781 56.660156 54.097656 56.628906 54.394531 56.628906 C 54.691406 56.628906 54.984375 56.660156 55.277344 56.71875 C 55.570312 56.777344 55.851562 56.863281 56.128906 56.976562 C 56.402344 57.089844 56.664062 57.230469 56.910156 57.394531 C 57.160156 57.5625 57.386719 57.75 57.597656 57.960938 C 57.808594 58.171875 57.996094 58.402344 58.160156 58.648438 C 58.328125 58.898438 58.464844 59.160156 58.582031 59.4375 C 58.695312 59.710938 58.78125 59.996094 58.839844 60.289062 C 58.898438 60.582031 58.925781 60.878906 58.925781 61.175781 C 58.925781 61.476562 58.898438 61.769531 58.839844 62.0625 C 58.78125 62.355469 58.695312 62.640625 58.582031 62.917969 C 58.464844 63.191406 58.328125 63.453125 58.160156 63.703125 C 57.996094 63.953125 57.808594 64.179688 57.597656 64.390625 C 57.386719 64.605469 57.160156 64.792969 56.914062 64.957031 C 56.664062 65.125 56.402344 65.265625 56.128906 65.378906 C 55.855469 65.492188 55.570312 65.578125 55.28125 65.636719 C 54.988281 65.695312 54.691406 65.726562 54.394531 65.726562 Z M 54.394531 65.726562 " fill-opacity="1" fill-rule="evenodd"/></svg>