<svg xmlns="http://www.w3.org/2000/svg" xmlns:xlink="http://www.w3.org/1999/xlink" width="500" zoomAndPan="magnify" viewBox="0 0 375 374.999991" height="500" preserveAspectRatio="xMidYMid meet" version="1.0"><defs><clipPath id="1e827b8fc4"><path d="M 1 1 L 374 1 L 374 373.5 L 1 373.5 Z M 1 1 " clip-rule="nonzero"/></clipPath></defs><g clip-path="url(#1e827b8fc4)"><path fill="#ffffff" d="M 18.484375 373.113281 C 14.203125 373.113281 9.929688 371.480469 6.664062 368.214844 C 0.136719 361.6875 0.136719 351.101562 6.664062 344.574219 L 344.726562 6.519531 C 351.25 -0.0117188 361.835938 -0.0117188 368.367188 6.519531 C 374.894531 13.042969 374.894531 23.628906 368.367188 30.15625 L 30.304688 368.214844 C 27.039062 371.480469 22.761719 373.113281 18.484375 373.113281 " fill-opacity="1" fill-rule="nonzero"/><path fill="#ffffff" d="M 356.546875 373.113281 C 352.269531 373.113281 347.992188 371.480469 344.730469 368.214844 L 6.664062 30.15625 C 0.136719 23.628906 0.136719 13.042969 6.664062 6.519531 C 13.191406 -0.0117188 23.777344 -0.0117188 30.304688 6.519531 L 368.367188 344.574219 C 374.894531 351.101562 374.894531 361.6875 368.367188 368.214844 C 365.105469 371.480469 360.828125 373.113281 356.546875 373.113281 " fill-opacity="1" fill-rule="nonzero"/></g></svg>