<svg xmlns="http://www.w3.org/2000/svg" xmlns:xlink="http://www.w3.org/1999/xlink" width="500" zoomAndPan="magnify" viewBox="0 0 375 374.999991" height="500" preserveAspectRatio="xMidYMid meet" version="1.0"><defs><clipPath id="733235c13e"><path d="M 3 60.703125 L 372 60.703125 L 372 107 L 3 107 Z M 3 60.703125 " clip-rule="nonzero"/></clipPath><clipPath id="8c1e82c887"><path d="M 3 268 L 372 268 L 372 314.203125 L 3 314.203125 Z M 3 268 " clip-rule="nonzero"/></clipPath></defs><g clip-path="url(#733235c13e)"><path fill="#ffffff" d="M 348.21875 60.8125 L 26.78125 60.8125 C 14.121094 60.8125 3.824219 71.109375 3.824219 83.773438 C 3.824219 96.433594 14.121094 106.730469 26.78125 106.730469 L 348.21875 106.730469 C 360.875 106.730469 371.175781 96.433594 371.175781 83.773438 C 371.175781 71.109375 360.875 60.8125 348.21875 60.8125 Z M 348.21875 60.8125 " fill-opacity="1" fill-rule="nonzero"/></g><path fill="#ffffff" d="M 348.21875 164.539062 L 26.78125 164.539062 C 14.121094 164.539062 3.824219 174.835938 3.824219 187.5 C 3.824219 200.164062 14.121094 210.460938 26.78125 210.460938 L 348.21875 210.460938 C 360.875 210.460938 371.175781 200.164062 371.175781 187.5 C 371.175781 174.835938 360.875 164.539062 348.21875 164.539062 Z M 348.21875 164.539062 " fill-opacity="1" fill-rule="nonzero"/><g clip-path="url(#8c1e82c887)"><path fill="#ffffff" d="M 348.21875 268.269531 L 26.78125 268.269531 C 14.121094 268.269531 3.824219 278.566406 3.824219 291.226562 C 3.824219 303.890625 14.121094 314.1875 26.78125 314.1875 L 348.21875 314.1875 C 360.875 314.1875 371.175781 303.890625 371.175781 291.226562 C 371.175781 278.566406 360.875 268.269531 348.21875 268.269531 Z M 348.21875 268.269531 " fill-opacity="1" fill-rule="nonzero"/></g></svg>