<svg xmlns="http://www.w3.org/2000/svg" xmlns:xlink="http://www.w3.org/1999/xlink" width="100" zoomAndPan="magnify" viewBox="0 0 75 74.999997" height="100" preserveAspectRatio="xMidYMid meet" version="1.0"><defs><clipPath id="27e2fb945e"><path d="M 9.921875 5.363281 L 65.421875 5.363281 L 65.421875 69.863281 L 9.921875 69.863281 Z M 9.921875 5.363281 " clip-rule="nonzero"/></clipPath></defs><g clip-path="url(#27e2fb945e)"><path fill="#000000" d="M 65.371094 21.789062 C 65.371094 21.785156 65.371094 21.78125 65.371094 21.773438 C 65.371094 21.761719 65.367188 21.75 65.367188 21.734375 C 65.367188 21.714844 65.367188 21.691406 65.363281 21.671875 C 65.359375 21.664062 65.359375 21.652344 65.359375 21.640625 C 65.355469 21.617188 65.351562 21.59375 65.34375 21.570312 C 65.34375 21.5625 65.34375 21.554688 65.339844 21.550781 C 65.332031 21.523438 65.328125 21.5 65.320312 21.472656 C 65.316406 21.46875 65.316406 21.460938 65.3125 21.457031 C 65.304688 21.429688 65.296875 21.402344 65.285156 21.378906 C 65.28125 21.371094 65.277344 21.367188 65.277344 21.363281 C 65.265625 21.335938 65.25 21.3125 65.238281 21.285156 C 65.238281 21.285156 65.238281 21.28125 65.234375 21.28125 C 65.234375 21.277344 65.230469 21.277344 65.230469 21.273438 C 65.210938 21.242188 65.191406 21.210938 65.167969 21.179688 C 65.164062 21.171875 65.15625 21.167969 65.152344 21.160156 C 65.128906 21.125 65.101562 21.097656 65.074219 21.070312 C 65.066406 21.0625 65.0625 21.058594 65.054688 21.054688 C 65.035156 21.035156 65.011719 21.011719 64.988281 20.996094 C 64.972656 20.980469 64.957031 20.972656 64.941406 20.960938 C 64.925781 20.949219 64.914062 20.941406 64.902344 20.933594 C 64.890625 20.925781 64.875 20.914062 64.863281 20.90625 L 38.1875 5.546875 C 37.859375 5.359375 37.464844 5.371094 37.160156 5.550781 L 10.484375 20.910156 C 10.136719 21.109375 9.953125 21.484375 9.976562 21.859375 L 9.976562 52.511719 C 9.976562 52.863281 10.160156 53.207031 10.492188 53.394531 L 37.082031 68.707031 C 37.085938 68.707031 37.085938 68.710938 37.089844 68.710938 C 37.125 68.738281 37.164062 68.757812 37.203125 68.78125 C 37.214844 68.785156 37.222656 68.789062 37.230469 68.792969 C 37.269531 68.808594 37.304688 68.824219 37.34375 68.839844 C 37.351562 68.839844 37.355469 68.84375 37.363281 68.847656 C 37.40625 68.859375 37.453125 68.871094 37.496094 68.878906 C 37.507812 68.878906 37.519531 68.882812 37.53125 68.882812 C 37.578125 68.890625 37.625 68.894531 37.675781 68.894531 C 37.726562 68.894531 37.773438 68.890625 37.820312 68.882812 C 37.832031 68.882812 37.84375 68.878906 37.851562 68.878906 C 37.898438 68.871094 37.945312 68.859375 37.988281 68.847656 C 37.996094 68.84375 38 68.839844 38.007812 68.839844 C 38.046875 68.828125 38.082031 68.808594 38.121094 68.792969 C 38.128906 68.789062 38.136719 68.785156 38.148438 68.78125 C 38.1875 68.757812 38.226562 68.738281 38.261719 68.710938 C 38.265625 68.710938 38.265625 68.707031 38.269531 68.707031 L 47.289062 63.511719 C 47.789062 64.410156 48.277344 65.273438 48.730469 66.070312 C 49.425781 67.296875 50.03125 68.367188 50.457031 69.171875 C 50.550781 69.351562 50.695312 69.503906 50.890625 69.605469 C 51.390625 69.863281 52.007812 69.671875 52.269531 69.171875 C 52.6875 68.375 53.292969 67.308594 53.984375 66.085938 C 55.523438 63.367188 57.496094 59.890625 58.871094 56.847656 L 64.863281 53.394531 C 65.191406 53.207031 65.375 52.867188 65.375 52.511719 Z M 37.675781 35.972656 L 36.910156 35.53125 L 13.046875 21.792969 L 20.417969 17.546875 L 45.042969 31.730469 L 42.023438 33.46875 Z M 28.785156 12.730469 L 53.410156 26.910156 L 47.09375 30.550781 L 22.464844 16.371094 Z M 48.289062 32.300781 C 50.339844 31.117188 52.382812 29.925781 54.429688 28.734375 L 54.429688 32.980469 L 48.289062 36.515625 Z M 37.675781 7.609375 L 62.304688 21.792969 L 55.457031 25.734375 L 30.828125 11.554688 Z M 12.023438 23.558594 L 35.40625 37.019531 L 36.648438 37.734375 L 36.648438 66.101562 L 12.023438 51.921875 Z M 52.203125 65.085938 L 51.359375 66.578125 L 50.503906 65.0625 C 47.972656 60.597656 44.242188 54.019531 44.242188 51.429688 C 44.242188 49.417969 45.042969 47.601562 46.332031 46.289062 C 47.617188 44.980469 49.394531 44.171875 51.359375 44.171875 C 53.324219 44.171875 55.101562 44.980469 56.386719 46.289062 C 57.675781 47.601562 58.472656 49.417969 58.472656 51.429688 C 58.472656 52.375 57.96875 53.867188 57.207031 55.59375 C 57.164062 55.664062 57.128906 55.742188 57.105469 55.820312 C 55.785156 58.757812 53.761719 62.328125 52.203125 65.085938 Z M 60.066406 53.800781 C 60.355469 52.882812 60.527344 52.070312 60.527344 51.425781 C 60.527344 48.863281 59.5 46.539062 57.847656 44.855469 C 56.183594 43.167969 53.890625 42.125 51.359375 42.125 C 48.828125 42.125 46.53125 43.167969 44.871094 44.855469 C 43.214844 46.539062 42.191406 48.863281 42.191406 51.425781 C 42.191406 53.664062 44.195312 57.828125 46.300781 61.722656 L 38.699219 66.101562 L 38.699219 37.742188 C 41.214844 36.347656 43.726562 34.921875 46.234375 33.480469 L 46.234375 38.285156 C 46.234375 38.851562 46.695312 39.308594 47.261719 39.308594 C 47.484375 39.308594 47.6875 39.238281 47.855469 39.121094 L 55.964844 34.453125 C 56.292969 34.261719 56.476562 33.921875 56.476562 33.566406 L 56.480469 33.566406 L 56.480469 27.535156 C 58.765625 26.207031 61.046875 24.878906 63.328125 23.558594 L 63.328125 51.921875 Z M 21.171875 53.023438 C 20.890625 53.507812 20.265625 53.675781 19.777344 53.398438 L 14.453125 50.332031 C 13.964844 50.054688 13.796875 49.429688 14.074219 48.941406 C 14.355469 48.453125 14.980469 48.285156 15.472656 48.566406 L 20.792969 51.628906 C 21.285156 51.910156 21.453125 52.53125 21.171875 53.023438 Z M 51.359375 46.800781 C 50.199219 46.800781 49.144531 47.277344 48.382812 48.054688 C 47.628906 48.824219 47.15625 49.886719 47.15625 51.054688 C 47.15625 52.222656 47.628906 53.285156 48.382812 54.054688 C 49.144531 54.828125 50.199219 55.308594 51.359375 55.308594 C 52.519531 55.308594 53.574219 54.828125 54.332031 54.054688 C 55.089844 53.285156 55.558594 52.222656 55.558594 51.054688 C 55.558594 49.886719 55.089844 48.824219 54.332031 48.054688 C 53.574219 47.277344 52.519531 46.800781 51.359375 46.800781 Z M 52.875 52.621094 C 52.488281 53.015625 51.949219 53.257812 51.359375 53.257812 C 50.765625 53.257812 50.230469 53.015625 49.84375 52.621094 C 49.453125 52.222656 49.210938 51.667969 49.210938 51.054688 C 49.210938 50.4375 49.453125 49.882812 49.84375 49.484375 C 50.230469 49.09375 50.765625 48.847656 51.359375 48.847656 C 51.949219 48.847656 52.488281 49.09375 52.875 49.484375 C 53.265625 49.882812 53.507812 50.4375 53.507812 51.054688 C 53.507812 51.667969 53.265625 52.222656 52.875 52.621094 Z M 52.875 52.621094 " fill-opacity="1" fill-rule="nonzero"/></g></svg>