<svg xmlns="http://www.w3.org/2000/svg" xmlns:xlink="http://www.w3.org/1999/xlink" width="500" zoomAndPan="magnify" viewBox="0 0 375 149.999998" height="200" preserveAspectRatio="xMidYMid meet" version="1.0"><defs><g/></defs><path fill="#ffffff" d="M 148.269531 35.421875 C 148.21875 35.324219 148.195312 35.226562 148.148438 35.15625 C 147.855469 34.738281 140.621094 25.1875 129.898438 17.808594 C 119.515625 10.675781 100.753906 4.054688 84.289062 1.710938 C 72.21875 -0.0234375 61.886719 1.367188 56.582031 5.398438 C 54.335938 7.109375 53.042969 9.234375 52.722656 11.726562 C 51.867188 18.664062 54.457031 23.136719 55.628906 24.746094 C 50.695312 27.65625 48.230469 33.859375 45.101562 41.75 C 44.199219 44.046875 43.195312 46.539062 42.070312 49.175781 C 37.285156 60.292969 37.355469 62.34375 37.453125 66.816406 C 37.527344 69.308594 37.601562 72.410156 36.867188 78.394531 C 35.5 89.511719 36.671875 92.175781 38.140625 95.519531 C 38.921875 97.304688 39.800781 99.332031 40.484375 103.167969 C 41.828125 110.886719 42.585938 112.304688 44.199219 115.382812 C 44.953125 116.824219 45.882812 118.582031 47.203125 121.613281 C 49.375 126.621094 48.71875 129.429688 47.863281 132.996094 C 47.226562 135.78125 46.46875 138.910156 47.105469 143.453125 C 47.691406 147.777344 49.792969 149.167969 50.988281 149.632812 C 51.476562 149.828125 52.015625 149.902344 52.527344 149.902344 C 53.699219 149.902344 54.875 149.4375 55.898438 148.535156 C 58.269531 146.480469 60.199219 141.695312 58.609375 134.414062 C 55.996094 122.566406 58.707031 119.65625 61.347656 116.847656 C 61.738281 116.433594 62.128906 116.019531 62.496094 115.578125 C 64.914062 112.746094 64.816406 110.8125 64.695312 107.859375 C 64.644531 106.5625 64.570312 105.121094 64.667969 103.191406 C 64.867188 99.550781 66.183594 96.621094 68.089844 95.546875 C 69.3125 94.863281 70.753906 94.960938 72.367188 95.8125 C 74.222656 96.816406 73.976562 100.871094 73.757812 104.460938 C 73.539062 108.226562 73.316406 111.765625 75.175781 113.5 C 76.003906 114.285156 77.128906 114.601562 78.546875 114.40625 C 80.304688 114.1875 81.574219 113.429688 82.382812 112.183594 C 84.359375 109.054688 82.527344 103.609375 80.941406 98.792969 C 80.402344 97.15625 79.890625 95.59375 79.597656 94.371094 C 79.449219 93.761719 79.402344 93.347656 79.375 93.101562 C 79.9375 93.324219 80.867188 93.8125 81.574219 94.203125 C 82.917969 94.933594 84.457031 95.765625 86.070312 96.253906 C 86.707031 96.449219 88.636719 97.035156 89.929688 95.839844 C 91.664062 94.25 90.90625 90.878906 89.855469 86.214844 L 89.832031 86.066406 C 91.492188 84.332031 100.191406 75.855469 118.636719 67.746094 C 123.570312 65.570312 128.308594 64.25 132.488281 63.078125 C 142.945312 60.171875 151.175781 57.851562 152.007812 44.804688 C 152.324219 40.75 150.957031 37.425781 148.269531 35.421875 Z M 55.167969 12.019531 C 55.386719 10.210938 56.363281 8.625 58.074219 7.328125 C 62.765625 3.738281 72.707031 2.515625 83.945312 4.128906 C 100.070312 6.449219 118.390625 12.898438 128.503906 19.8125 C 135.296875 24.480469 140.71875 30.148438 143.675781 33.566406 C 140.402344 33.128906 136.910156 34.226562 134.515625 36.621094 C 132.585938 38.550781 131.582031 41.089844 131.484375 44 C 126.332031 36.792969 116.339844 30.074219 103.074219 25.066406 C 87.953125 19.347656 67.871094 16.097656 56.609375 21.5 C 55.628906 19.519531 54.628906 16.34375 55.167969 12.019531 Z M 114.800781 38.332031 C 111.234375 36.988281 107.519531 35.59375 105.296875 33.46875 C 96.917969 25.480469 88.953125 25.039062 79.742188 24.527344 C 75.882812 24.308594 71.902344 24.089844 67.429688 23.332031 C 63.523438 22.671875 60.445312 22.867188 57.925781 23.722656 C 57.902344 23.695312 57.878906 23.671875 57.828125 23.625 C 67.136719 19.300781 84.777344 20.765625 102.21875 27.363281 C 116.925781 32.929688 127.722656 40.847656 131.460938 48.761719 C 129.726562 49.496094 127.96875 50.324219 126.40625 51.132812 C 126.671875 50.398438 126.820312 49.640625 126.820312 48.835938 C 126.867188 42.875 120.738281 40.554688 114.800781 38.332031 Z M 88.34375 94.078125 C 88.246094 94.152344 87.828125 94.25 86.851562 93.957031 C 85.460938 93.542969 84.042969 92.761719 82.796875 92.078125 C 80.621094 90.902344 79.035156 90.050781 77.8125 90.976562 C 76.714844 91.808594 76.933594 93.46875 77.277344 94.960938 C 77.59375 96.328125 78.128906 97.914062 78.691406 99.625 C 80.0625 103.707031 81.746094 108.785156 80.378906 110.9375 C 79.988281 111.546875 79.304688 111.914062 78.300781 112.035156 C 77.347656 112.15625 77.007812 111.863281 76.910156 111.765625 C 75.882812 110.8125 76.078125 107.539062 76.273438 104.65625 C 76.542969 100.136719 76.835938 95.449219 73.609375 93.714844 C 70.628906 92.101562 68.359375 92.6875 66.992188 93.445312 C 64.304688 94.960938 62.570312 98.550781 62.324219 103.09375 C 62.226562 105.121094 62.277344 106.710938 62.324219 107.980469 C 62.445312 110.765625 62.496094 111.914062 60.710938 114.015625 C 60.371094 114.429688 60.003906 114.820312 59.636719 115.210938 C 56.707031 118.339844 53.40625 121.855469 56.289062 134.976562 C 57.660156 141.230469 56.121094 145.210938 54.359375 146.726562 C 53.554688 147.433594 52.675781 147.65625 51.917969 147.363281 C 50.746094 146.921875 49.890625 145.382812 49.597656 143.136719 C 49.035156 139.03125 49.695312 136.246094 50.304688 133.558594 C 51.160156 129.871094 51.992188 126.375 49.5 120.636719 C 48.15625 117.53125 47.179688 115.699219 46.421875 114.234375 C 44.882812 111.304688 44.222656 110.082031 42.953125 102.726562 C 42.21875 98.597656 41.265625 96.425781 40.433594 94.519531 C 39.066406 91.390625 38.066406 89.121094 39.335938 78.664062 C 40.09375 72.507812 39.996094 69.160156 39.945312 66.71875 C 39.847656 62.492188 39.800781 60.734375 44.367188 50.105469 C 45.515625 47.441406 46.492188 44.949219 47.421875 42.628906 C 51.796875 31.589844 54.261719 25.359375 62.960938 25.359375 C 64.179688 25.359375 65.550781 25.480469 67.039062 25.75 C 71.632812 26.53125 75.882812 26.773438 79.621094 26.96875 C 88.707031 27.484375 95.890625 27.875 103.609375 35.253906 C 106.199219 37.71875 110.132812 39.210938 113.945312 40.628906 C 119.320312 42.65625 124.402344 44.558594 124.375 48.8125 C 124.351562 53.039062 118.246094 56.089844 112.355469 59.070312 C 107.835938 61.34375 103.585938 63.492188 101.414062 66.328125 C 98.089844 70.675781 97.550781 70.921875 94.546875 72.214844 C 94.058594 72.433594 93.523438 72.65625 92.886719 72.949219 C 90.566406 74 88.414062 75.585938 87.4375 78.003906 C 86.316406 80.742188 86.851562 83.722656 87.464844 86.507812 C 87.804688 88.019531 88.148438 89.511719 88.390625 91.050781 C 88.511719 91.734375 88.953125 93.492188 88.34375 94.078125 Z M 149.636719 44.707031 C 148.929688 56.019531 142.136719 57.921875 131.902344 60.78125 C 127.648438 61.980469 122.8125 63.324219 117.707031 65.570312 C 101.4375 72.726562 92.691406 80.03125 89.34375 83.207031 C 88.808594 78.566406 90.710938 76.636719 93.914062 75.171875 C 94.523438 74.902344 95.0625 74.65625 95.523438 74.460938 C 98.921875 72.996094 99.777344 72.507812 103.34375 67.816406 C 105.175781 65.421875 109.375 63.296875 113.457031 61.246094 C 116.632812 59.65625 119.855469 58.019531 122.347656 56.140625 C 122.375 56.117188 122.421875 56.140625 122.445312 56.117188 C 122.496094 56.089844 127.871094 52.890625 132.757812 50.886719 C 132.953125 51.425781 133.148438 51.960938 133.390625 52.5 C 133.683594 53.109375 134.394531 53.378906 135.003906 53.109375 C 135.613281 52.84375 135.882812 52.109375 135.613281 51.5 C 132.21875 44.070312 134.5625 40.089844 136.273438 38.378906 C 138.644531 36.011719 142.527344 35.253906 145.53125 36.597656 C 148.414062 37.890625 149.882812 40.773438 149.636719 44.707031 Z M 149.636719 44.707031 " fill-opacity="1" fill-rule="nonzero"/><path fill="#ffffff" d="M 90.175781 64.8125 C 89.636719 62.882812 87.511719 61.808594 86.191406 61.292969 C 86.265625 61.195312 86.339844 61.097656 86.414062 61.027344 C 87.367188 59.902344 88.660156 58.386719 88.464844 56.675781 C 88.367188 55.75 87.855469 54.941406 86.949219 54.308594 C 81.601562 50.398438 78.253906 54.871094 76.640625 56.996094 C 76.445312 57.238281 76.273438 57.484375 75.957031 57.875 C 74.539062 59.632812 72.4375 62.273438 72.757812 64.984375 C 72.902344 66.230469 73.5625 67.304688 74.6875 68.183594 C 77.007812 69.96875 78.742188 69.917969 79.792969 69.550781 C 80.453125 69.332031 81.257812 68.84375 81.941406 67.792969 C 82.847656 68.792969 84.140625 69.894531 85.628906 70.066406 C 85.753906 70.089844 85.898438 70.089844 86.046875 70.089844 C 86.851562 70.089844 87.902344 69.820312 88.90625 68.746094 C 90.417969 67.132812 90.445312 65.714844 90.175781 64.8125 Z M 87.121094 67.035156 C 86.582031 67.597656 86.167969 67.648438 85.898438 67.597656 C 84.726562 67.476562 83.308594 65.765625 82.699219 64.714844 C 82.480469 64.347656 82.0625 64.105469 81.648438 64.105469 C 81.601562 64.105469 81.527344 64.105469 81.476562 64.105469 C 80.988281 64.175781 80.597656 64.519531 80.453125 65.007812 C 80.132812 66.207031 79.621094 66.988281 78.984375 67.183594 C 78.300781 67.402344 77.300781 67.058594 76.152344 66.179688 C 75.566406 65.714844 75.222656 65.226562 75.175781 64.640625 C 74.980469 62.957031 76.789062 60.707031 78.007812 59.167969 C 78.203125 58.925781 78.398438 58.679688 78.59375 58.386719 C 80.648438 55.652344 82.332031 53.890625 85.507812 56.1875 C 85.828125 56.433594 86.023438 56.652344 86.046875 56.871094 C 86.121094 57.53125 85.191406 58.632812 84.582031 59.363281 C 83.773438 60.316406 83.066406 61.148438 83.359375 62.148438 C 83.457031 62.46875 83.75 63.03125 84.582031 63.25 C 85.972656 63.640625 87.585938 64.519531 87.828125 65.398438 C 87.953125 65.886719 87.707031 66.425781 87.121094 67.035156 Z M 87.121094 67.035156 " fill-opacity="1" fill-rule="nonzero"/><path fill="#ffffff" d="M 47.375 86.824219 C 42.953125 91.390625 41.851562 96.011719 44.441406 99.210938 C 45.613281 100.675781 47.667969 101.382812 49.964844 101.382812 C 52.601562 101.382812 55.582031 100.429688 57.925781 98.574219 C 60.664062 96.402344 62.738281 92.101562 62.910156 88.3125 C 63.007812 85.96875 62.375 84.089844 61.054688 82.84375 C 58.121094 80.105469 52.234375 81.816406 47.375 86.824219 Z M 56.414062 96.644531 C 52.894531 99.429688 47.863281 99.527344 46.347656 97.648438 C 44.589844 95.472656 45.613281 92.148438 49.132812 88.511719 C 51.894531 85.675781 55.167969 83.941406 57.4375 83.941406 C 58.246094 83.941406 58.90625 84.160156 59.367188 84.601562 C 60.347656 85.53125 60.492188 87.042969 60.445312 88.191406 C 60.320312 91.292969 58.585938 94.910156 56.414062 96.644531 Z M 56.414062 96.644531 " fill-opacity="1" fill-rule="nonzero"/><path fill="#ffffff" d="M 76.6875 39.773438 C 76.886719 37.523438 76.296875 35.546875 75.027344 34.25 C 71.972656 31.148438 65.011719 30.316406 59.515625 34.03125 C 53.1875 38.304688 50.914062 43.632812 53.601562 47.882812 C 54.898438 49.933594 57.242188 51.425781 60.050781 51.988281 C 60.882812 52.15625 61.714844 52.230469 62.570312 52.230469 C 65.355469 52.230469 68.164062 51.351562 70.53125 49.667969 C 74.003906 47.222656 76.371094 43.4375 76.6875 39.773438 Z M 60.515625 49.59375 C 58.367188 49.152344 56.582031 48.054688 55.65625 46.589844 C 53.382812 42.972656 56.851562 38.769531 60.859375 36.058594 C 65.28125 33.054688 70.949219 33.589844 73.269531 35.960938 C 74.050781 36.742188 74.394531 38.039062 74.246094 39.550781 C 74.027344 41.871094 72.5625 45.246094 69.089844 47.6875 C 66.550781 49.496094 63.398438 50.179688 60.515625 49.59375 Z M 60.515625 49.59375 " fill-opacity="1" fill-rule="nonzero"/><path fill="#ffffff" d="M 61.324219 58.851562 C 60.445312 58.242188 59.367188 58.019531 58.34375 58.214844 C 54.996094 58.828125 52.0625 60.21875 49.667969 62.34375 C 48.59375 63.296875 47.667969 64.371094 46.910156 65.519531 C 46.640625 65.910156 46.421875 66.304688 46.25 66.644531 C 46.128906 66.890625 46.03125 67.109375 45.957031 67.253906 C 45.542969 68.234375 45.515625 69.332031 45.933594 70.308594 C 46.324219 71.285156 47.082031 72.070312 48.082031 72.484375 C 48.59375 72.703125 49.109375 72.800781 49.644531 72.800781 C 51.183594 72.800781 52.675781 71.898438 53.308594 70.40625 C 53.308594 70.382812 53.335938 70.382812 53.335938 70.359375 C 53.40625 70.234375 53.480469 70.089844 53.601562 69.917969 C 53.96875 69.355469 54.457031 68.820312 55.019531 68.304688 C 56.316406 67.15625 57.925781 66.402344 59.808594 66.058594 C 61.984375 65.667969 63.425781 63.566406 63.03125 61.417969 C 62.765625 60.367188 62.179688 59.460938 61.324219 58.851562 Z M 59.320312 63.664062 C 56.972656 64.105469 54.972656 65.03125 53.335938 66.5 C 52.625 67.132812 52.015625 67.84375 51.503906 68.574219 C 51.355469 68.792969 51.234375 69.015625 51.085938 69.308594 C 51.0625 69.355469 51.039062 69.382812 51.011719 69.429688 C 50.671875 70.210938 49.769531 70.578125 48.960938 70.234375 C 48.570312 70.066406 48.277344 69.773438 48.128906 69.382812 C 48.007812 68.988281 48.007812 68.574219 48.179688 68.207031 C 48.230469 68.109375 48.277344 67.964844 48.375 67.792969 C 48.523438 67.5 48.71875 67.207031 48.914062 66.863281 C 49.546875 65.886719 50.355469 64.984375 51.257812 64.175781 C 53.308594 62.34375 55.851562 61.148438 58.757812 60.609375 C 58.855469 60.585938 58.953125 60.585938 59.027344 60.585938 C 59.34375 60.585938 59.636719 60.683594 59.90625 60.855469 C 60.25 61.097656 60.46875 61.441406 60.542969 61.855469 C 60.710938 62.6875 60.148438 63.492188 59.320312 63.664062 Z M 59.320312 63.664062 " fill-opacity="1" fill-rule="nonzero"/><path fill="#ffffff" d="M 93.984375 50.398438 C 93.984375 50.398438 94.011719 50.398438 94.011719 50.398438 C 94.230469 50.375 94.546875 50.375 94.9375 50.421875 C 95.574219 50.472656 96.234375 50.570312 96.941406 50.742188 C 98.992188 51.253906 100.925781 52.207031 102.660156 53.597656 C 103.050781 53.917969 103.414062 54.234375 103.78125 54.578125 C 104.5625 55.308594 105.566406 55.699219 106.542969 55.699219 C 107.59375 55.699219 108.644531 55.285156 109.425781 54.480469 C 110.941406 52.890625 110.890625 50.351562 109.304688 48.835938 C 108.765625 48.324219 108.203125 47.832031 107.640625 47.371094 C 104.980469 45.246094 102 43.753906 98.796875 42.972656 C 96.964844 42.53125 95.132812 42.335938 93.570312 42.410156 L 93.253906 42.433594 C 92.203125 42.53125 91.226562 43.046875 90.566406 43.875 C 89.882812 44.707031 89.5625 45.734375 89.660156 46.808594 C 89.882812 48.957031 91.8125 50.59375 93.984375 50.398438 Z M 92.472656 45.414062 C 92.738281 45.097656 93.105469 44.902344 93.523438 44.851562 L 93.765625 44.828125 C 94.695312 44.78125 96.257812 44.828125 98.285156 45.316406 C 101.144531 46 103.808594 47.320312 106.175781 49.25 C 106.6875 49.667969 107.179688 50.105469 107.667969 50.570312 C 108.277344 51.15625 108.300781 52.15625 107.714844 52.769531 C 107.128906 53.378906 106.128906 53.402344 105.515625 52.816406 C 105.101562 52.425781 104.660156 52.035156 104.222656 51.695312 C 102.195312 50.082031 99.945312 48.957031 97.550781 48.371094 C 96.722656 48.175781 95.914062 48.03125 95.160156 47.980469 C 94.839844 47.957031 94.570312 47.957031 94.328125 47.957031 C 94.179688 47.957031 94.035156 47.957031 93.9375 47.957031 C 93.914062 47.957031 93.863281 47.957031 93.839844 47.957031 C 93.839844 47.957031 93.839844 47.957031 93.816406 47.957031 C 93.007812 48.03125 92.203125 47.417969 92.128906 46.539062 C 92.082031 46.148438 92.203125 45.734375 92.472656 45.414062 Z M 92.472656 45.414062 " fill-opacity="1" fill-rule="nonzero"/><path fill="#ffffff" d="M 83.089844 73.875 C 82.210938 73.265625 81.160156 73.046875 80.109375 73.214844 C 79.058594 73.410156 78.128906 73.972656 77.519531 74.851562 C 76.789062 75.902344 75.859375 76.832031 74.710938 77.636719 C 73.660156 78.394531 72.464844 79.03125 71.167969 79.496094 C 70.753906 79.640625 70.386719 79.765625 70.042969 79.863281 L 69.75 79.933594 C 68.699219 80.128906 67.796875 80.742188 67.210938 81.621094 C 66.625 82.5 66.40625 83.574219 66.601562 84.625 C 66.796875 85.675781 67.40625 86.578125 68.285156 87.167969 C 68.945312 87.605469 69.726562 87.851562 70.507812 87.851562 C 70.777344 87.851562 71.023438 87.824219 71.289062 87.777344 C 71.460938 87.753906 71.753906 87.679688 72.121094 87.582031 C 72.683594 87.433594 73.269531 87.238281 73.929688 86.996094 C 75.882812 86.285156 77.691406 85.308594 79.351562 84.136719 C 81.207031 82.792969 82.796875 81.230469 84.042969 79.445312 C 85.335938 77.636719 84.898438 75.148438 83.089844 73.875 Z M 82.0625 78.054688 C 80.964844 79.617188 79.597656 80.984375 77.933594 82.15625 C 76.46875 83.207031 74.832031 84.0625 73.097656 84.699219 C 72.511719 84.917969 72 85.089844 71.511719 85.210938 C 71.21875 85.285156 70.972656 85.332031 70.851562 85.382812 C 70.460938 85.457031 70.042969 85.382812 69.679688 85.136719 C 69.335938 84.894531 69.089844 84.550781 69.019531 84.136719 C 68.945312 83.722656 69.019531 83.304688 69.261719 82.964844 C 69.484375 82.621094 69.847656 82.378906 70.265625 82.304688 C 70.410156 82.28125 70.582031 82.230469 70.730469 82.207031 C 71.121094 82.109375 71.558594 81.960938 72.046875 81.765625 C 73.539062 81.207031 74.929688 80.496094 76.152344 79.59375 C 77.496094 78.617188 78.644531 77.492188 79.523438 76.222656 C 79.769531 75.878906 80.109375 75.660156 80.523438 75.585938 C 80.941406 75.511719 81.355469 75.609375 81.699219 75.855469 C 82.40625 76.367188 82.578125 77.34375 82.0625 78.054688 Z M 82.0625 78.054688 " fill-opacity="1" fill-rule="nonzero"/><g fill="#ffffff" fill-opacity="1"><g transform="translate(161.614052, 97.876496)"><g><path d="M 25.390625 -45.578125 C 29.515625 -45.578125 33.09375 -44.890625 36.125 -43.515625 C 39.164062 -42.148438 41.507812 -40.195312 43.15625 -37.65625 C 44.8125 -35.125 45.640625 -32.144531 45.640625 -28.71875 C 45.640625 -25.28125 44.8125 -22.300781 43.15625 -19.78125 C 41.507812 -17.269531 39.164062 -15.332031 36.125 -13.96875 C 33.09375 -12.601562 29.515625 -11.921875 25.390625 -11.921875 L 17.453125 -11.921875 L 17.453125 0 L 4.5625 0 L 4.5625 -45.578125 Z M 24.609375 -22.078125 C 27.253906 -22.078125 29.25 -22.648438 30.59375 -23.796875 C 31.945312 -24.941406 32.625 -26.582031 32.625 -28.71875 C 32.625 -30.84375 31.945312 -32.488281 30.59375 -33.65625 C 29.25 -34.832031 27.253906 -35.421875 24.609375 -35.421875 L 17.453125 -35.421875 L 17.453125 -22.078125 Z M 24.609375 -22.078125 "/></g></g></g><g fill="#ffffff" fill-opacity="1"><g transform="translate(204.642627, 97.876496)"><g><path d="M 3.96875 -35.296875 L 16.34375 -35.296875 L 16.34375 0 L 3.96875 0 Z M 10.15625 -39.203125 C 7.894531 -39.203125 6.070312 -39.828125 4.6875 -41.078125 C 3.300781 -42.335938 2.609375 -43.898438 2.609375 -45.765625 C 2.609375 -47.640625 3.300781 -49.203125 4.6875 -50.453125 C 6.070312 -51.710938 7.894531 -52.34375 10.15625 -52.34375 C 12.414062 -52.34375 14.238281 -51.742188 15.625 -50.546875 C 17.007812 -49.359375 17.703125 -47.832031 17.703125 -45.96875 C 17.703125 -44.007812 17.007812 -42.390625 15.625 -41.109375 C 14.238281 -39.835938 12.414062 -39.203125 10.15625 -39.203125 Z M 10.15625 -39.203125 "/></g></g></g><g fill="#ffffff" fill-opacity="1"><g transform="translate(220.06984, 97.876496)"><g><path d="M 34.703125 -9.25 L 34.703125 0 L 2.15625 0 L 2.15625 -7.296875 L 18.484375 -26.109375 L 2.609375 -26.109375 L 2.609375 -35.296875 L 34.046875 -35.296875 L 34.046875 -28.0625 L 17.703125 -9.25 Z M 34.703125 -9.25 "/></g></g></g><g fill="#ffffff" fill-opacity="1"><g transform="translate(251.315762, 97.876496)"><g><path d="M 34.703125 -9.25 L 34.703125 0 L 2.15625 0 L 2.15625 -7.296875 L 18.484375 -26.109375 L 2.609375 -26.109375 L 2.609375 -35.296875 L 34.046875 -35.296875 L 34.046875 -28.0625 L 17.703125 -9.25 Z M 34.703125 -9.25 "/></g></g></g><g fill="#ffffff" fill-opacity="1"><g transform="translate(282.561684, 97.876496)"><g><path d="M 19.015625 -35.875 C 24.867188 -35.875 29.335938 -34.535156 32.421875 -31.859375 C 35.503906 -29.191406 37.046875 -25.101562 37.046875 -19.59375 L 37.046875 0 L 25.515625 0 L 25.515625 -4.5625 C 23.742188 -1.125 20.273438 0.59375 15.109375 0.59375 C 12.367188 0.59375 10 0.113281 8 -0.84375 C 6.007812 -1.800781 4.503906 -3.09375 3.484375 -4.71875 C 2.460938 -6.34375 1.953125 -8.195312 1.953125 -10.28125 C 1.953125 -13.625 3.234375 -16.21875 5.796875 -18.0625 C 8.359375 -19.90625 12.304688 -20.828125 17.640625 -20.828125 L 24.671875 -20.828125 C 24.453125 -24.566406 21.957031 -26.4375 17.1875 -26.4375 C 15.5 -26.4375 13.785156 -26.164062 12.046875 -25.625 C 10.304688 -25.082031 8.832031 -24.332031 7.625 -23.375 L 3.453125 -31.765625 C 5.398438 -33.078125 7.773438 -34.085938 10.578125 -34.796875 C 13.378906 -35.515625 16.191406 -35.875 19.015625 -35.875 Z M 18.5625 -7.234375 C 19.988281 -7.234375 21.242188 -7.578125 22.328125 -8.265625 C 23.410156 -8.960938 24.191406 -9.984375 24.671875 -11.328125 L 24.671875 -14.390625 L 19.34375 -14.390625 C 15.738281 -14.390625 13.9375 -13.195312 13.9375 -10.8125 C 13.9375 -9.726562 14.347656 -8.859375 15.171875 -8.203125 C 15.992188 -7.554688 17.125 -7.234375 18.5625 -7.234375 Z M 18.5625 -7.234375 "/></g></g></g></svg>