<svg xmlns="http://www.w3.org/2000/svg" xmlns:xlink="http://www.w3.org/1999/xlink" width="100" zoomAndPan="magnify" viewBox="0 0 75 74.999997" height="100" preserveAspectRatio="xMidYMid meet" version="1.0"><defs><clipPath id="4c2f474743"><path d="M 10.066406 5 L 64.816406 5 L 64.816406 70.554688 L 10.066406 70.554688 Z M 10.066406 5 " clip-rule="nonzero"/></clipPath></defs><g clip-path="url(#4c2f474743)"><path fill="#000000" d="M 61.457031 26.414062 C 60.78125 27.832031 59.546875 28.855469 57.933594 28.921875 C 56.269531 28.988281 55.089844 27.835938 53.796875 26.960938 C 50.863281 24.972656 47.71875 23.316406 44.46875 21.921875 C 37.167969 18.792969 29.277344 16.847656 21.328125 16.5625 C 18.542969 16.460938 14.472656 17.433594 13.285156 13.996094 C 12.875 12.808594 12.992188 11.472656 13.695312 10.417969 C 14.53125 9.164062 15.804688 8.800781 17.222656 8.605469 C 24.71875 7.574219 32.503906 8.71875 39.703125 10.882812 C 47.234375 13.144531 54.695312 16.71875 60.476562 22.15625 C 61.859375 23.457031 63.941406 21.375 62.554688 20.070312 C 56.761719 14.621094 49.429688 10.925781 41.921875 8.484375 C 33.855469 5.867188 25.082031 4.550781 16.636719 5.734375 C 13.085938 6.230469 10.171875 8.667969 10.109375 12.484375 C 10.0625 15.179688 11.613281 17.660156 13.941406 18.824219 C 14.070312 18.917969 14.226562 18.992188 14.402344 19.035156 C 14.863281 19.222656 15.351562 19.359375 15.859375 19.441406 C 17.765625 19.742188 19.800781 19.445312 21.734375 19.527344 C 23.917969 19.625 26.097656 19.851562 28.253906 20.207031 C 32.820312 20.96875 37.3125 22.21875 41.621094 23.914062 C 45.800781 25.558594 49.835938 27.683594 53.484375 30.324219 C 54.121094 30.785156 54.804688 31.136719 55.507812 31.375 C 54.246094 32.734375 52.988281 34.09375 51.730469 35.453125 C 51.320312 33.453125 49.90625 31.742188 47.796875 31.109375 C 44.835938 30.222656 41.628906 32.035156 40.765625 34.992188 C 39.898438 37.964844 41.679688 41.179688 44.632812 42.046875 C 44.90625 42.128906 45.183594 42.1875 45.457031 42.226562 C 45.347656 42.339844 45.238281 42.460938 45.132812 42.578125 C 38.824219 49.386719 32.515625 56.195312 26.210938 63.003906 C 25.414062 63.859375 24.621094 64.714844 23.828125 65.574219 C 23.121094 61.535156 22.414062 57.5 21.710938 53.460938 C 20.335938 45.59375 18.960938 37.726562 17.582031 29.863281 C 17.265625 28.046875 16.949219 26.230469 16.632812 24.414062 C 16.304688 22.546875 13.472656 23.339844 13.796875 25.199219 C 14.664062 30.160156 15.53125 35.125 16.398438 40.089844 C 17.777344 47.957031 19.152344 55.820312 20.527344 63.6875 C 20.84375 65.503906 21.164062 67.320312 21.480469 69.136719 C 21.671875 70.230469 23.226562 70.550781 23.933594 69.785156 C 27.914062 65.492188 31.890625 61.195312 35.871094 56.902344 C 42.175781 50.09375 48.484375 43.285156 54.792969 36.476562 C 56.242188 34.914062 57.691406 33.347656 59.144531 31.78125 C 59.1875 31.734375 59.226562 31.6875 59.261719 31.636719 C 61.226562 31.242188 63 29.992188 64 27.902344 C 64.8125 26.199219 62.277344 24.703125 61.457031 26.414062 Z M 43.597656 35.777344 C 44.640625 32.394531 49.695312 33.945312 48.828125 37.386719 C 47.691406 40.753906 42.558594 39.144531 43.597656 35.777344 Z M 43.597656 35.777344 " fill-opacity="1" fill-rule="nonzero"/></g><path fill="#000000" d="M 28.304688 22.460938 C 25.34375 21.574219 22.136719 23.386719 21.273438 26.339844 C 20.40625 29.316406 22.183594 32.53125 25.140625 33.398438 C 28.078125 34.261719 30.953125 32.582031 32.046875 29.851562 C 32.097656 29.75 32.140625 29.640625 32.171875 29.519531 C 32.210938 29.398438 32.234375 29.285156 32.246094 29.171875 C 32.808594 26.265625 31.21875 23.335938 28.304688 22.460938 Z M 24.109375 27.125 C 25.152344 23.746094 30.207031 25.296875 29.335938 28.734375 C 28.199219 32.105469 23.066406 30.496094 24.109375 27.125 Z M 24.109375 27.125 " fill-opacity="1" fill-rule="nonzero"/><path fill="#000000" d="M 25.726562 47.347656 C 25.726562 50.441406 28.316406 53.042969 31.398438 53.042969 C 34.449219 53.042969 36.769531 50.636719 37.046875 47.703125 C 37.066406 47.59375 37.078125 47.476562 37.070312 47.347656 C 37.078125 47.222656 37.066406 47.105469 37.046875 46.996094 C 36.769531 44.054688 34.453125 41.664062 31.398438 41.65625 C 28.316406 41.640625 25.726562 44.261719 25.726562 47.347656 Z M 34.132812 47.347656 C 33.996094 50.894531 28.664062 50.882812 28.664062 47.347656 C 28.664062 43.816406 33.996094 43.792969 34.132812 47.347656 Z M 34.132812 47.347656 " fill-opacity="1" fill-rule="nonzero"/></svg>