<svg xmlns="http://www.w3.org/2000/svg" xmlns:xlink="http://www.w3.org/1999/xlink" width="100" zoomAndPan="magnify" viewBox="0 0 75 74.999997" height="100" preserveAspectRatio="xMidYMid meet" version="1.0"><defs><clipPath id="a138454b97"><path d="M 24 5.820312 L 51 5.820312 L 51 32 L 24 32 Z M 24 5.820312 " clip-rule="nonzero"/></clipPath><clipPath id="adca7f60b6"><path d="M 16.089844 33 L 58.839844 33 L 58.839844 68.820312 L 16.089844 68.820312 Z M 16.089844 33 " clip-rule="nonzero"/></clipPath></defs><g clip-path="url(#a138454b97)"><path fill="#000000" d="M 37.488281 31.613281 L 37.472656 31.613281 C 35.765625 31.617188 34.125 31.289062 32.546875 30.628906 C 30.96875 29.972656 29.582031 29.039062 28.382812 27.824219 C 27.175781 26.617188 26.242188 25.222656 25.585938 23.644531 C 24.933594 22.066406 24.601562 20.425781 24.597656 18.71875 C 24.582031 15.25 26.082031 11.835938 28.714844 9.367188 C 31.191406 7.042969 34.410156 5.816406 37.550781 6.015625 C 40.652344 5.847656 43.835938 7.082031 46.289062 9.402344 C 48.90625 11.875 50.394531 15.28125 50.378906 18.75 C 50.375 20.457031 50.046875 22.097656 49.386719 23.675781 C 48.730469 25.25 47.796875 26.640625 46.582031 27.847656 C 45.382812 29.058594 43.992188 29.988281 42.417969 30.640625 C 40.839844 31.292969 39.195312 31.617188 37.488281 31.613281 Z M 37.488281 31.613281 " fill-opacity="1" fill-rule="nonzero"/></g><g clip-path="url(#adca7f60b6)"><path fill="#000000" d="M 37.421875 68.816406 C 31.613281 68.808594 26.109375 67.519531 20.90625 64.945312 C 17.585938 63.296875 16.09375 61.964844 16.214844 60.757812 L 17.804688 45.027344 C 17.8125 42.542969 18.738281 40.183594 20.484375 38.210938 C 22.175781 36.296875 24.578125 34.871094 27.246094 34.199219 C 28.4375 33.90625 29.644531 33.761719 30.871094 33.765625 L 44.5625 33.765625 C 47.882812 33.96875 50.964844 35.230469 53.238281 37.316406 C 55.511719 39.402344 56.785156 42.148438 56.792969 45.023438 L 58.683594 60.628906 C 58.828125 61.839844 57.375 63.179688 54.101562 64.835938 C 48.890625 67.46875 43.363281 68.792969 37.523438 68.816406 Z M 37.421875 68.816406 " fill-opacity="1" fill-rule="nonzero"/></g></svg>